<svg width="12" height="12" viewBox="0 0 12 12" fill="none" xmlns="http://www.w3.org/2000/svg">
<path fill-rule="evenodd" clip-rule="evenodd" d="M7.16539 0.309582C7.59328 0.106311 8.05586 0 8.5258 0C8.99574 0 9.45833 0.106312 9.88621 0.309582C10.3137 0.51267 10.6958 0.8073 11.0133 1.17159C11.3309 1.5355 11.5787 1.96281 11.7465 2.42721C11.9144 2.89169 12 3.38701 12 3.88555C12 4.38409 11.9144 4.87941 11.7465 5.34389C11.5787 5.80839 11.3307 6.23579 11.0131 6.59975L6.50228 11.7715C6.37567 11.9167 6.19247 12 5.99986 12C5.80725 12 5.62406 11.9167 5.49745 11.7715L0.986481 6.59963C0.346785 5.86621 0 4.88878 0 3.88555C0 2.88232 0.346785 1.90489 0.986481 1.17147C1.6287 0.435149 2.52088 0.000313078 3.47392 0.000313078C4.42697 0.000313078 5.31914 0.435149 5.96137 1.17147C5.97495 1.18704 5.98779 1.20323 5.99986 1.21998C6.0119 1.20327 6.02471 1.18712 6.03826 1.17159C6.35584 0.8073 6.73789 0.51267 7.16539 0.309582ZM8.5258 1.33333C8.25839 1.33333 7.99084 1.39358 7.73753 1.51392C7.49601 1.62866 7.26976 1.79701 7.07286 2.01449L6.55934 2.80697C6.43645 2.99663 6.22585 3.11111 5.99986 3.11111C5.77388 3.11111 5.56327 2.99663 5.44038 2.80697L4.92691 2.01454C4.52025 1.56552 3.99714 1.33365 3.47392 1.33365C2.93791 1.33365 2.40201 1.57701 1.99131 2.04789C1.57808 2.52166 1.33333 3.18154 1.33333 3.88555C1.33333 4.58956 1.57808 5.24944 1.99131 5.72322L5.99986 10.3191L10.0084 5.72322C10.2123 5.48954 10.3782 5.20723 10.4926 4.89072C10.607 4.57419 10.6667 4.2324 10.6667 3.88555C10.6667 3.5387 10.607 3.19691 10.4926 2.88039C10.3782 2.56388 10.2124 2.28168 10.0085 2.048C9.80484 1.81436 9.56778 1.63445 9.31408 1.51392C9.06077 1.39358 8.79322 1.33333 8.5258 1.33333Z" fill="#5C4B51"/>
<path d="M7.73753 1.51392C7.99084 1.39358 8.25839 1.33333 8.5258 1.33333C8.79322 1.33333 9.06077 1.39358 9.31408 1.51392C9.56778 1.63445 9.80484 1.81436 10.0085 2.048C10.2124 2.28168 10.3782 2.56388 10.4926 2.88039C10.607 3.19691 10.6667 3.5387 10.6667 3.88555C10.6667 4.2324 10.607 4.57419 10.4926 4.89072C10.3782 5.20723 10.2123 5.48954 10.0084 5.72322L5.99986 10.3191L1.99131 5.72322C1.57808 5.24944 1.33333 4.58956 1.33333 3.88555C1.33333 3.18154 1.57808 2.52166 1.99131 2.04789C2.40201 1.57701 2.93791 1.33365 3.47392 1.33365C3.99714 1.33365 4.52025 1.56552 4.92691 2.01454L5.44038 2.80697C5.56327 2.99663 5.77388 3.11111 5.99986 3.11111C6.22585 3.11111 6.43645 2.99663 6.55934 2.80697L7.07286 2.01449C7.26976 1.79701 7.49601 1.62866 7.73753 1.51392Z" fill="#5C4B51"/>
</svg>
