<svg width="32" height="27" viewBox="0 0 32 27" fill="none" xmlns="http://www.w3.org/2000/svg">
<path d="M2 3.7874H30C31.2 3.7874 32 3.0431 32 1.92666C32 0.810214 31.2 0.065918 30 0.065918H2C0.8 0.065918 0 0.810214 0 1.92666C0 3.0431 0.8 3.7874 2 3.7874ZM2 14.9518H30C31.2 14.9518 32 14.2075 32 13.0911C32 11.9747 31.2 11.2304 30 11.2304H2C0.8 11.2304 0 11.9747 0 13.0911C0 14.2075 0.8 14.9518 2 14.9518ZM2 26.1163H30C31.2 26.1163 32 25.372 32 24.2555C32 23.1391 31.2 22.3948 30 22.3948H2C0.8 22.3948 0 23.1391 0 24.2555C0 25.372 0.8 26.1163 2 26.1163Z" fill="#8EBEB2"/>
</svg>
