<svg width="170" height="48" viewBox="0 0 170 48" fill="none" xmlns="http://www.w3.org/2000/svg">
<path d="M11.77 43.9774V31.9995L0 35.7654V25.5368H11.77L9.91904 11.7367L18.3906 13.6318V25.5368L30.0893 21.7709V31.9995H18.3906L20.2415 45.8725L11.77 43.9774Z" fill="#8EBEB2"/>
<path d="M56.0022 14.0933H64.5212V15.0652L53.5106 28.9625L58.2566 36.5185C59.8939 38.9481 60.8906 40.1143 63.1924 40.1143C63.8805 40.1143 65.684 39.9199 66.9417 38.9724L69.6943 44.4147C67.0603 47.0387 63.6907 47.233 62.1245 47.233C57.3074 47.233 54.6259 44.5362 52.419 41.3291L46.0357 30.8333V46.5285H38.3473V0.196045H46.0357V27.4804L55.9785 14.0933H56.0022Z" fill="#8EBEB2"/>
<path d="M120.215 14.0933H129.659V20.1187H120.215V37.1016C120.215 39.0939 121.022 40.6245 123.276 40.6245C125.151 40.6245 126.408 39.2883 126.408 37.296C126.408 36.5914 126.29 35.3037 125.981 34.5991H132.293C132.863 35.8139 132.982 37.6847 132.982 38.2435C132.982 42.9812 129.802 47.2087 122.968 47.2087C117.723 47.2087 112.526 44.9006 112.526 36.0083V20.1187H107.591V14.0933H112.906L114.282 5.44397H120.215V14.0933Z" fill="#8EBEB2"/>
<path d="M170 14.0934V46.5042H162.312V41.645C160.057 45.1679 156.118 47.2088 151.491 47.2088C142.118 47.2088 135.972 39.6527 135.972 30.1773C135.972 20.7019 141.857 13.3888 151.538 13.3888C155.786 13.3888 159.725 15.1867 162.288 18.904V14.0934H169.976H170ZM153.057 40.6003C158.301 40.6003 162.501 36.9559 162.501 30.5417C162.501 24.1276 158.562 19.973 152.867 19.973C147.172 19.973 143.731 24.6378 143.731 30.2259C143.731 35.814 147.291 40.6003 153.057 40.6003Z" fill="#8EBEB2"/>
<path d="M87.5391 13.3888C78.4032 13.3888 70.4062 20.9448 70.4062 30.2988C70.4062 39.6527 78.4032 47.2088 87.5391 47.2088C96.6751 47.2088 104.743 39.6527 104.743 30.2988C104.743 20.9448 96.7937 13.3888 87.5391 13.3888ZM84.8102 19.1226C85.3797 18.9526 86.3526 18.9526 86.6374 19.2927C87.3256 20.1431 86.8984 21.5765 86.5188 22.4755C86.4713 22.5727 86.4238 22.6941 86.3526 22.8399C85.617 24.2977 83.4576 27.7477 82.2711 25.391C81.1558 23.1315 82.4372 19.8758 84.8102 19.1226ZM76.7658 28.5495C76.6946 27.6505 76.6946 26.6787 76.9794 25.804C77.0268 25.6826 77.0506 25.5854 77.098 25.4882C77.4777 24.6135 78.4506 23.4473 79.5185 23.6417C79.8032 23.6903 80.0168 24.4435 80.1592 24.9051C80.4202 25.804 80.5863 26.7516 80.8711 27.6505C81.2508 28.9139 80.7524 29.5699 79.5659 29.8372C77.9049 30.2259 76.8845 29.8372 76.7658 28.5495ZM90.1969 39.5798C90.1969 39.5798 90.1969 39.6527 90.1969 39.677C89.7935 41.4506 87.4917 42.0823 86.234 40.8675C84.6916 39.3612 83.1017 38.5351 80.8711 38.5351C79.827 38.5351 78.4744 37.1745 78.2845 36.1541C78.2133 35.7654 78.2845 35.3524 78.4032 34.9636C79.1388 32.8499 81.4643 31.1977 83.0779 29.7886C85 28.1364 88.1324 29.2784 88.7256 31.8051C89.2714 34.089 89.9358 36.3728 90.1969 38.7052C90.2206 38.9967 90.2443 39.2883 90.1969 39.5798ZM89.5324 28.3551C88.1561 27.6748 87.8239 26.3385 88.1561 24.978C88.4171 23.9332 88.9392 22.9128 89.5324 21.9896C90.5528 20.4103 91.9054 20.0216 93.258 20.7748C94.5631 21.4794 95.0852 22.9614 94.5869 24.6135C94.492 24.9294 94.3733 25.2209 94.1597 25.7554C93.8513 26.2414 93.4479 26.9945 92.9021 27.6262C91.9766 28.671 90.7664 28.9868 89.5087 28.3551H89.5324ZM98.6684 31.2463C98.0514 32.3639 97.5531 33.9432 96.5802 34.7935C96.2005 35.1337 95.7259 35.3281 95.2276 35.3281C94.753 35.3281 94.3258 35.1094 93.9462 34.8178C93.0207 34.1618 91.4783 32.9713 91.9766 31.6108C92.5461 30.0558 95.9395 28.4766 97.6006 29.0354C98.7633 29.4241 99.0955 30.3474 98.6684 31.2463Z" fill="#8EBEB2"/>
</svg>
