<svg width="136" height="54" viewBox="0 0 136 54" fill="none" xmlns="http://www.w3.org/2000/svg">
<path d="M9.41333 34.1448V24.8032L0 27.7402V19.7629H9.41333L7.93301 9.00024L14.7083 10.4782V19.7629L24.0647 16.8259V24.8032H14.7083L16.1887 35.6227L9.41333 34.1448Z" fill="#FDFCF7"/>
<path d="M44.7891 10.8385H51.6024V11.5964L42.7964 22.4349L46.5921 28.3278C47.9016 30.2227 48.6987 31.1322 50.5396 31.1322C51.09 31.1322 52.5324 30.9806 53.5382 30.2416L55.7397 34.4861C53.6331 36.5325 50.9382 36.6841 49.6856 36.6841C45.8329 36.6841 43.6884 34.5808 41.9234 32.0796L36.8182 23.8939V36.1346H30.6691V0H36.8182V21.279L44.7702 10.8385H44.7891Z" fill="#FDFCF7"/>
<path d="M96.1451 10.8382H103.699V15.5374H96.1451V28.7823C96.1451 30.336 96.7904 31.5298 98.5933 31.5298C100.093 31.5298 101.098 30.4876 101.098 28.9339C101.098 28.3844 101.004 27.3801 100.757 26.8306H105.805C106.261 27.778 106.356 29.237 106.356 29.6728C106.356 33.3678 103.812 36.6648 98.3466 36.6648C94.1523 36.6648 89.996 34.8647 89.996 27.9296V15.5374H86.0485V10.8382H90.2997L91.4005 4.09253H96.1451V10.8382Z" fill="#FDFCF7"/>
<path d="M135.962 10.8388V36.1159H129.813V32.3263C128.01 35.0738 124.86 36.6655 121.159 36.6655C113.662 36.6655 108.747 30.7725 108.747 23.3826C108.747 15.9928 113.453 10.2893 121.197 10.2893C124.594 10.2893 127.744 11.6915 129.794 14.5906V10.8388H135.943H135.962ZM122.411 31.5115C126.606 31.5115 129.965 28.6692 129.965 23.6669C129.965 18.6645 126.814 15.4243 122.259 15.4243C117.705 15.4243 114.953 19.0624 114.953 23.4205C114.953 27.7787 117.8 31.5115 122.411 31.5115Z" fill="#FDFCF7"/>
<path d="M70.0117 10.2893C62.705 10.2893 56.3093 16.1823 56.3093 23.4774C56.3093 30.7725 62.705 36.6655 70.0117 36.6655C77.3185 36.6655 83.7711 30.7725 83.7711 23.4774C83.7711 16.1823 77.4134 10.2893 70.0117 10.2893ZM67.8292 14.7611C68.2847 14.6285 69.0628 14.6285 69.2906 14.8938C69.8409 15.557 69.4993 16.6749 69.1957 17.376C69.1577 17.4518 69.1197 17.5465 69.0628 17.6602C68.4745 18.7971 66.7474 21.4878 65.7985 19.6498C64.9065 17.8876 65.9314 15.3485 67.8292 14.7611ZM61.3955 22.1131C61.3386 21.412 61.3386 20.6541 61.5663 19.9719C61.6043 19.8772 61.6232 19.8014 61.6612 19.7256C61.9649 19.0435 62.743 18.1339 63.597 18.2855C63.8247 18.3234 63.9956 18.9108 64.1094 19.2708C64.3182 19.9719 64.451 20.7109 64.6788 21.412C64.9824 22.3973 64.5839 22.9089 63.635 23.1174C62.3065 23.4205 61.4904 23.1174 61.3955 22.1131ZM72.1373 30.7157C72.1373 30.7157 72.1373 30.7725 72.1373 30.7915C71.8147 32.1747 69.9738 32.6673 68.9679 31.7199C67.7343 30.5451 66.4628 29.9009 64.6788 29.9009C63.8437 29.9009 62.762 28.8398 62.6101 28.0439C62.5532 27.7408 62.6101 27.4186 62.705 27.1155C63.2934 25.467 65.1532 24.1785 66.4438 23.0795C67.981 21.791 70.4862 22.6815 70.9607 24.6522C71.3972 26.4333 71.9286 28.2145 72.1373 30.0335C72.1563 30.2609 72.1753 30.4883 72.1373 30.7157ZM71.6059 21.9615C70.5052 21.431 70.2395 20.3888 70.5052 19.3277C70.7139 18.5129 71.1315 17.7171 71.6059 16.997C72.422 15.7654 73.5038 15.4622 74.5856 16.0496C75.6294 16.5991 76.0469 17.755 75.6484 19.0435C75.5724 19.2898 75.4775 19.5172 75.3067 19.934C75.06 20.313 74.7374 20.9004 74.3009 21.3931C73.5607 22.2078 72.5928 22.4542 71.587 21.9615H71.6059ZM78.9127 24.2164C78.4192 25.088 78.0207 26.3196 77.2425 26.9828C76.9389 27.2481 76.5593 27.3997 76.1608 27.3997C75.7812 27.3997 75.4396 27.2292 75.1359 27.0018C74.3958 26.4902 73.1622 25.5617 73.5607 24.5006C74.0162 23.2879 76.7301 22.0563 78.0586 22.4921C78.9886 22.7952 79.2543 23.5153 78.9127 24.2164Z" fill="#FDFCF7"/>
<path d="M1.82194 46.8213L1.2336 53.548H0L0.797097 45.0212H2.16355L5.01032 51.8237L7.8571 45.0212H9.22355L10.0206 53.548H8.78705L8.19871 46.8213L5.44683 53.4343H4.53586L1.78398 46.8213H1.82194Z" fill="#FDFCF7"/>
<path d="M12.9243 51.7858L12.2601 53.548H11.0075L14.2908 45.0212H15.7142L19.0164 53.548H17.7828L17.1186 51.7858H12.9433H12.9243ZM16.739 50.8005L15.012 46.196L13.3039 50.8005H16.739Z" fill="#FDFCF7"/>
<path d="M24.5772 45.0212H25.8867V45.1539L22.7363 49.4362L24.3305 51.5963C24.7101 52.1269 25.1656 52.6195 25.678 52.6195C25.8678 52.6195 26.2094 52.6195 26.589 52.2974L27.0255 53.1501C26.6838 53.5291 25.9437 53.6807 25.5451 53.6807C24.2926 53.6807 23.6093 52.6385 23.1918 52.0511L21.5407 49.7583V53.548H20.326V45.0212H21.5407V49.1899L24.5583 45.0212H24.5772Z" fill="#FDFCF7"/>
<path d="M29.3217 53.548H28.1071V45.0212H29.3217V53.548Z" fill="#FDFCF7"/>
<path d="M32.9467 47.2382V53.548H31.7321V45.0212H32.6431L37.3118 51.3121V45.0212H38.5454V53.548H37.6344L32.9467 47.2382Z" fill="#FDFCF7"/>
<path d="M41.5249 49.2846C41.5249 50.9331 42.6446 52.5816 44.8841 52.5816C45.6622 52.5816 46.3074 52.3921 46.8958 52.0132V50.2699H44.4855V49.2846H47.9965V52.4869C46.9148 53.4722 45.6622 53.6806 44.8081 53.6806C42.1701 53.6806 40.2723 51.71 40.2723 49.3036C40.2723 46.8971 42.265 44.8696 44.7132 44.8696C45.9089 44.8696 46.8958 45.116 47.8257 45.817L47.3513 46.7645C46.1366 45.9876 45.4534 45.9876 44.7132 45.9876C42.9482 45.9876 41.5249 47.4466 41.5249 49.3036V49.2846Z" fill="#FDFCF7"/>
<path d="M53.1208 53.548V45.0212H56.537C58.1691 45.0212 59.1181 46.2718 59.1181 47.7119C59.1181 49.152 58.1691 50.3268 56.537 50.3268H54.3355V53.548H53.1208ZM56.2903 49.3415C57.2582 49.3415 57.8465 48.6593 57.8465 47.693C57.8465 46.7266 57.2392 46.0255 56.2903 46.0255H54.3545V49.3604H56.2903V49.3415Z" fill="#FDFCF7"/>
<path d="M66.1592 53.548H60.7313V45.0212H66.1592V46.0255H61.9459V48.8867H65.6278V49.891H61.9459V52.5816H66.1592V53.5859V53.548Z" fill="#FDFCF7"/>
<path d="M73.8833 45.0212V46.0255H71.0365V53.567H69.8219V46.0255H66.9751V45.0212H73.8833Z" fill="#FDFCF7"/>
<path d="M75.6484 51.2556C75.8002 51.9567 76.5593 52.6009 77.6221 52.6009C78.7418 52.6009 79.4251 52.0325 79.4251 51.2935C79.4251 50.6303 78.8557 50.2134 78.1725 49.9481L76.8819 49.5123C75.1929 48.9628 74.9082 47.9775 74.9082 47.2385C74.9082 45.7795 76.1987 44.8889 77.6601 44.8889C79.1783 44.8889 80.2032 45.7226 80.4499 46.9164L79.3492 47.2385C79.1404 46.3858 78.5331 45.9879 77.6601 45.9879C76.844 45.9879 76.1418 46.4427 76.1418 47.2196C76.1418 47.5796 76.2557 48.0533 77.2615 48.4323L78.5521 48.9249C79.9565 49.3607 80.6207 50.3082 80.6207 51.2177C80.6207 52.7335 79.4251 53.6999 77.6411 53.6999C75.8571 53.6999 74.7753 52.7525 74.4907 51.5587L75.6294 51.2745L75.6484 51.2556Z" fill="#FDFCF7"/>
<path d="M86.8266 49.9664V53.5287H85.6119V45.002H86.8266V48.9811H90.812V45.002H92.0267V53.5287H90.812V49.9664H86.8266Z" fill="#FDFCF7"/>
<path d="M95.3101 51.7858L94.6458 53.548H93.3932L96.6765 45.0212H98.0999L101.402 53.548H100.169L99.5043 51.7858H95.3291H95.3101ZM99.1248 50.8005L97.3977 46.196L95.6896 50.8005H99.1248Z" fill="#FDFCF7"/>
<path d="M102.731 53.548V45.0212H106.147C107.779 45.0212 108.728 46.2718 108.728 47.7119C108.728 49.152 107.779 50.3268 106.147 50.3268H103.945V53.548H102.731ZM105.9 49.3415C106.868 49.3415 107.456 48.6593 107.456 47.693C107.456 46.7266 106.849 46.0255 105.9 46.0255H103.964V49.3604H105.9V49.3415Z" fill="#FDFCF7"/>
<path d="M110.341 53.548V45.0212H113.757C115.389 45.0212 116.338 46.2718 116.338 47.7119C116.338 49.152 115.389 50.3268 113.757 50.3268H111.556V53.548H110.341ZM113.51 49.3415C114.478 49.3415 115.067 48.6593 115.067 47.693C115.067 46.7266 114.459 46.0255 113.51 46.0255H111.575V49.3604H113.51V49.3415Z" fill="#FDFCF7"/>
<path d="M119.185 53.548H117.97V45.0212H119.185V53.548Z" fill="#FDFCF7"/>
<path d="M127.004 53.548H121.576V45.0212H127.004V46.0255H122.791V48.8867H126.473V49.891H122.791V52.5816H127.004V53.5859V53.548Z" fill="#FDFCF7"/>
<path d="M128.788 53.548V45.0212H132.356C133.988 45.0212 134.937 46.2718 134.937 47.7119C134.937 48.9815 134.197 50.0426 132.926 50.2889C133.02 51.2174 133.59 52.6574 134.558 52.6574C134.994 52.6574 135.336 52.4869 135.564 52.2595L136 53.0933C135.601 53.5101 135.051 53.6996 134.501 53.6996C132.489 53.6996 131.882 51.3689 131.787 50.3268H130.041V53.548H128.826H128.788ZM132.09 49.3415C133.058 49.3415 133.647 48.6593 133.647 47.693C133.647 46.7266 133.039 46.0255 132.09 46.0255H130.003V49.3604H132.09V49.3415Z" fill="#FDFCF7"/>
</svg>
